<svg xmlns="http://www.w3.org/2000/svg" width="202" height="64" viewBox="0 0 202 64">
  <g fill="none" fill-rule="evenodd">
    <path fill="#0A2458" d="M30.9823444,20.4897668 C37.6083215,26.8302841 46.627875,25.1751006 46.627875,25.1751006 L46.627875,25.1751006 L46.6438896,25.2076378 C46.8311535,25.5917361 48.5711615,29.2613057 47.0892313,30.0454556 C46.1904788,30.5202133 42.9289559,30.5575593 40.7830498,29.1872304 C38.6368992,27.8161692 36.9447702,27.6055183 35.7851448,27.2344994 C34.4854254,26.8188118 35.0279531,29.4066685 36.4403833,29.8404188 C37.7088077,30.2304769 39.116348,31.2925184 38.8376271,32.8620259 C38.4325039,35.1408628 35.9954079,36.346186 36.2208295,37.4311721 C36.7640907,40.0341624 41.2079768,40.1676804 42.9556055,38.5142055 C44.7054346,36.8609747 46.0758121,34.5477208 47.6403162,34.6392551 C49.2045759,34.7307894 48.1004501,36.9371312 48.1004501,36.9371312 C44.3272055,43.3694269 44.3272055,51.8220668 44.6958994,54.2114771 C45.0626373,56.5999111 44.8792684,57.2435801 47.0892313,59.3574113 C49.2972384,61.4702661 48.4681661,63.1247174 48.4681661,63.1247174 C46.5361905,63.6748994 42.1182205,62.8491383 42.1182205,62.8491383 C38.8051097,59.3574113 38.4364158,47.4123121 37.8843529,45.6653502 C37.5386412,44.57475 31.9175262,46.3795616 31.038822,47.2033699 C30.5116973,47.6964345 33.8627044,46.3651602 35.0079048,47.9651791 C37.2520966,51.104194 31.3500603,58.0703175 32.3625016,59.265877 C33.3746984,60.4587515 36.6868312,61.8344505 34.4788242,63.3077859 C33.7433923,64.5948797 27.7611626,63.6748994 26.4717119,63.7664336 C25.1834837,63.8596765 22.4224358,62.0214245 19.3853565,62.664117 C10.182434,63.5833651 5.580117,58.0703175 2.26700622,53.8443637 C-1.04708253,49.6167013 -0.126325742,44.2876986 1.25456494,48.1462949 C2.63472215,52.0061116 8.2494804,55.6816394 9.99808702,56.5999111 C11.7469381,57.5181829 12.2060941,56.5999111 12.2060941,56.5999111 C10.0897715,51.453977 11.4699287,45.3897711 12.4821255,42.6332473 C13.4945668,39.8767235 19.477041,34.0883409 20.1224998,33.904296 C20.7652692,33.7202511 21.5322405,36.1953375 21.3373804,37.7553255 C21.0107391,40.3583158 21.4662277,41.336634 22.5312347,43.0699268 C23.8204409,45.1686243 25.8318764,46.5235755 26.6609487,46.4320412 C27.4878206,46.340507 29.5097692,44.195188 28.9577063,43.0928713 C28.4046655,41.9907988 26.9320903,38.774651 27.9445316,37.9469372 C28.9567284,37.1201997 29.8774852,37.9469372 31.1657134,37.7638687 C32.4541861,37.5798238 33.0989114,36.4767749 32.4541861,36.0181272 C31.8104387,35.5585032 29.8114723,34.5020757 29.8114723,34.5020757 C28.6149286,34.2264966 27.1135034,34.1530251 26.0086441,33.4170896 C22.9725427,31.17926 24.9226108,28.75348 24.9226108,28.75348 C27.5909962,26.0884905 30.9823444,20.4897668 30.9823444,20.4897668 Z M51.1328841,2.96083361 C51.8587808,3.51199191 51.1864279,5.21306464 53.2110659,6.50015841 C54.6369431,7.40598146 57.8564135,8.3603787 59.7893671,9.73827446 C60.7482646,10.4227066 60.3986411,11.5040314 57.9767035,13.3642517 C57.6576415,13.6093194 55.4056259,13.9964483 52.3868835,11.7271309 C52.051685,13.1411522 57.1055786,15.0167502 56.5231987,15.1502682 C56.3970409,15.684096 55.3303224,16.060729 53.7841551,15.8835187 C51.7612285,15.6516319 49.0852638,14.7716825 48.287731,15.0758203 C47.0376291,15.5515401 46.8647158,17.4088667 46.798497,19.2333279 L46.7823535,19.7290307 C46.7574261,20.5503015 46.7363144,21.3382141 46.627875,21.9599291 C46.627875,21.9599291 46.608168,21.9623899 46.570412,21.9663034 L46.4713258,21.9757684 C45.7383118,22.0405954 42.5654022,22.2178206 39.817551,20.765346 C39.817551,20.765346 41.2901261,18.3759356 40.9214322,17.0895741 C40.5537163,15.8024803 39.3571726,13.781892 39.634182,12.2192191 C39.634182,12.2192191 38.8967942,12.7703774 39.5415195,14.9767193 C40.1850224,17.1811084 39.634182,20.765346 35.6763459,21.6833736 C35.6763459,21.6833736 34.939936,20.6728354 34.939936,19.4789845 C34.939936,19.4789845 32.9145645,18.2844013 32.1791326,17.1811084 L32.638533,14.791698 C32.638533,14.791698 33.0989114,16.0787918 34.0194237,16.813995 C34.0194237,16.813995 32.183778,10.9643454 32.5514939,8.57493501 C36.3411195,-1.31076528 41.1087131,0.519919957 41.1087131,0.519919957 C41.1087131,0.519919957 45.0205847,-1.67690233 51.1328841,2.96083361 Z"/>
    <path fill="#D30919" d="M45.9000224,51.5799281 C45.8638375,52.656371 45.9124914,54.6347316 46.6423,55.945014 C54.8929262,50.9963057 60.416,41.9754211 60.416,31.66549 C60.416,26.3106136 58.9250879,21.3030793 56.3368959,17.0324567 C55.1545327,17.2745954 53.635993,17.7618017 52.279796,18.2414413 C54.8459838,22.0858803 56.3444751,26.6996953 56.3444751,31.66549 C56.3444751,39.9177309 52.2101158,47.2023936 45.9000224,51.5799281 Z M34.6238079,55.7695123 C34.1979029,56.9318754 33.7433923,58.7737888 34.5837112,59.8580427 C36.0296368,59.7291624 37.4450008,59.4919056 38.8202682,59.1553036 C38.5290782,58.1245058 38.1889899,56.5864861 38.2090382,55.1212056 C37.0459899,55.4233908 35.8482237,55.6406321 34.6238079,55.7695123 Z M3.71293177,31.66549 C3.71293177,38.3609161 6.04514074,44.507869 9.93696402,49.3545471 C9.96459161,47.5494915 10.1518725,45.2067026 10.8308267,43.4199538 C8.89322777,39.9377464 7.78519013,35.9322071 7.78519013,31.66549 C7.78519013,18.79919 17.828676,8.278364 30.5163427,7.4814057 C31.1324625,5.80596256 32.6490462,4.16225131 33.5179707,3.39751306 C33.0368105,3.3738362 32.5514939,3.36041118 32.0644659,3.36041118 C16.4054883,3.36041118 3.71293177,16.034123 3.71293177,31.66549 L3.71293177,31.66549 Z"/>
    <g fill-rule="nonzero" transform="translate(72 13)">
      <path fill="#D30919" d="M8.81652751,18.3909227 L12.9595376,0.353671591 L9.19546136,0.353671591 L6.51766217,13.692143 L6.4418754,13.692143 L3.8903875,0.353671591 L0,0.353671591 L4.14301006,18.3909227 L8.81652751,18.3909227 Z M18.6435453,18.6688075 C19.637194,18.6688075 20.4750589,18.5256547 21.1571398,18.2393492 C21.8392207,17.9530436 22.39078,17.5109541 22.8118176,16.9130807 C23.2328552,16.3152073 23.5360023,15.5699707 23.7212588,14.677371 C23.9065154,13.7847713 23.9991437,12.7574395 23.9991437,11.5953757 C23.9991437,10.3996289 23.9149361,9.35545565 23.7465211,8.46285592 C23.578106,7.57025619 23.2918005,6.82080925 22.8876044,6.21451509 C22.4834083,5.60822094 21.9360594,5.1577107 21.2455577,4.86298437 C20.555056,4.56825805 19.6877185,4.42931564 18.6435453,4.44615714 C17.6498965,4.44615714 16.8120317,4.60194105 16.1299508,4.91350888 C15.4478698,5.22507671 14.8963106,5.67979733 14.475273,6.27767073 C14.0542354,6.87554414 13.7510883,7.6207807 13.5658317,8.51338043 C13.3805752,9.40598016 13.2879469,10.4333119 13.2879469,11.5953757 C13.2879469,12.774281 13.3721544,13.8142439 13.5405695,14.7152644 C13.7089845,15.6162849 13.9952901,16.3657318 14.3994862,16.9636052 C14.8036823,17.5614786 15.3510312,17.9993577 16.0415329,18.2772426 C16.7320345,18.5551274 17.599372,18.685649 18.6435453,18.6688075 Z M18.6435453,16.3699422 C18.2225077,16.3699422 17.8856776,16.2520517 17.633055,16.0162706 C17.3804325,15.7804895 17.1909655,15.4520802 17.0646542,15.0310426 C16.938343,14.610005 16.8583458,14.1047599 16.8246628,13.5153072 C16.7909798,12.9258546 16.7741383,12.2858774 16.7741383,11.5953757 C16.7741383,10.904874 16.7909798,10.2648969 16.8246628,9.67544423 C16.8583458,9.08599158 16.938343,8.58074645 17.0646542,8.15970884 C17.1909655,7.73867123 17.3804325,7.4102619 17.633055,7.17448084 C17.8856776,6.93869978 18.2225077,6.82080925 18.6435453,6.82080925 C19.3508885,6.82080925 19.8392921,7.19132234 20.1087562,7.93234853 C20.3782202,8.67337472 20.5129523,9.89438379 20.5129523,11.5953757 C20.5129523,13.2963677 20.3782202,14.5173767 20.1087562,15.2584029 C19.8392921,15.9994291 19.3508885,16.3699422 18.6435453,16.3699422 Z M29.4810533,3.1325198 L29.4810533,0.151573539 L25.9948619,0.151573539 L25.9948619,3.1325198 L29.4810533,3.1325198 Z M29.4810533,18.3909227 L29.4810533,4.79982873 L25.9948619,4.79982873 L25.9948619,18.3909227 L29.4810533,18.3909227 Z M36.6302719,18.6688075 C38.4828374,18.6688075 39.8091058,18.2014558 40.6090773,17.2667523 C41.4090487,16.3320488 41.8090345,14.9720973 41.8090345,13.1868979 L38.4744166,13.1868979 C38.4744166,14.2984372 38.3396846,15.1068294 38.0702205,15.6120745 C37.8007564,16.1173196 37.3712981,16.3699422 36.7818454,16.3699422 C36.3944908,16.3699422 36.0787126,16.2815243 35.8345108,16.1046885 C35.590309,15.9278527 35.4008421,15.6457575 35.26611,15.2584029 C35.131378,14.8710483 35.0387497,14.3784343 34.9882252,13.7805609 C34.9377007,13.1826875 34.9124385,12.4627132 34.9124385,11.620638 C34.9124385,10.8290873 34.9377007,10.142796 34.9882252,9.56176408 C35.0387497,8.98073218 35.131378,8.5007493 35.26611,8.12181546 C35.4008421,7.74288161 35.6029401,7.45657604 35.8724042,7.26289874 C36.1418683,7.06922144 36.4871191,6.97238279 36.9081567,6.97238279 C37.2449868,6.97238279 37.5144509,7.05237993 37.7165489,7.21237422 C37.918647,7.37236851 38.0744309,7.58288732 38.1839007,7.84393064 C38.2933704,8.10497395 38.3691572,8.3954899 38.411261,8.71547848 C38.4533647,9.03546707 38.4744166,9.3638764 38.4744166,9.70070649 L41.8090345,9.70070649 C41.8090345,8.08392207 41.400628,6.80396774 40.583815,5.8608435 C39.7670021,4.91771926 38.5502034,4.44615714 36.933419,4.44615714 C36.1250268,4.44615714 35.3840006,4.55562692 34.7103404,4.77456647 C34.0366802,4.99350603 33.4556483,5.37665025 32.9672447,5.92399914 C32.4788411,6.47134803 32.0999072,7.20395347 31.8304432,8.12181546 C31.5609791,9.03967744 31.4262471,10.1975309 31.4262471,11.5953757 C31.4262471,12.9595376 31.5357168,14.1005495 31.7546564,15.0184115 C31.9735959,15.9362735 32.2977949,16.6688789 32.7272533,17.2162278 C33.1567116,17.7635767 33.6956398,18.1425105 34.3440377,18.3530293 C34.9924356,18.5635481 35.7545137,18.6688075 36.6302719,18.6688075 Z M48.3772212,18.6688075 C50.0445301,18.6688075 51.2655391,18.2561907 52.0402483,17.430957 C52.8149575,16.6057233 53.2359951,15.4015557 53.3033612,13.8184543 L50.1708414,13.8184543 C50.0697923,14.677371 49.8845358,15.3173482 49.6150717,15.7383858 C49.3456077,16.1594234 48.9161493,16.3699422 48.3266966,16.3699422 C48.0067081,16.3699422 47.737244,16.2815243 47.5183044,16.1046885 C47.2993649,15.9278527 47.1225291,15.6920716 46.987797,15.3973453 C46.853065,15.102619 46.7562264,14.7657889 46.6972811,14.3868551 C46.6383358,14.0079212 46.6088632,13.6163562 46.6088632,13.2121601 L46.6088632,12.1258831 L53.5054592,12.1258831 L53.5054592,11.3427532 C53.5054592,10.2985799 53.4380932,9.35124527 53.3033612,8.5007493 C53.1686291,7.65025334 52.9160066,6.92606865 52.5454935,6.32819525 C52.1749804,5.73032184 51.6655249,5.26718048 51.017127,4.93877114 C50.368729,4.61036181 49.5392849,4.44615714 48.5287947,4.44615714 C47.3498894,4.44615714 46.4067651,4.63983444 45.699422,5.02718904 C44.9920788,5.41454364 44.4489403,5.93663027 44.0700064,6.59344894 C43.6910726,7.25026761 43.43845,7.99971455 43.3121387,8.84178977 C43.1858274,9.68386498 43.1226718,10.5596232 43.1226718,11.4690644 C43.1226718,12.3279812 43.1605652,13.1868979 43.236352,14.0458146 C43.3121387,14.9047313 43.5184472,15.6794405 43.8552772,16.3699422 C44.1921073,17.0604439 44.714194,17.6162135 45.4215371,18.0372511 C46.1288803,18.4582887 47.1141083,18.6688075 48.3772212,18.6688075 Z M50.1708414,10.0543781 L46.6088632,10.0543781 L46.6088632,9.52387069 C46.6088632,9.20388211 46.6383358,8.88389353 46.6972811,8.56390495 C46.7562264,8.24391636 46.853065,7.95340041 46.987797,7.6923571 C47.1225291,7.43131378 47.3035753,7.22079498 47.5309356,7.06080069 C47.7582959,6.90080639 48.0488118,6.82080925 48.4024834,6.82080925 C48.756155,6.82080925 49.0466709,6.89238564 49.2740313,7.03553843 C49.5013916,7.17869122 49.6782274,7.38921002 49.8045386,7.66709484 C49.9308499,7.94497966 50.0192678,8.28180975 50.0697923,8.6775851 C50.1203168,9.07336045 50.1539999,9.53229144 50.1708414,10.0543781 Z M70.2795975,18.3909227 L70.2795975,14.677371 L71.997431,14.677371 L71.997431,11.8479983 L70.2795975,11.8479983 L70.2795975,0.50524513 L66.5155213,0.50524513 L60.578891,11.6964247 L60.578891,14.677371 L66.9449797,14.677371 L66.9449797,18.3909227 L70.2795975,18.3909227 Z M66.9449797,11.8479983 L63.4082638,11.8479983 L66.8944551,5.0524513 L66.9449797,5.0524513 L66.9449797,11.8479983 Z M83.3149219,18.3909227 L83.3149219,11.1911796 L85.2601156,11.1911796 C86.1190323,11.1911796 86.9021623,11.0817098 87.6095055,10.8627703 C88.3168486,10.6438307 88.9189324,10.3154214 89.4157568,9.87754228 C89.9125812,9.43966317 90.2999358,8.87547278 90.5778206,8.1849711 C90.8557054,7.49446942 90.9946478,6.68607721 90.9946478,5.75979448 C90.9946478,5.0861343 90.9104403,4.42510526 90.7420253,3.77670734 C90.5736102,3.12830943 90.2957254,2.5514879 89.9083708,2.04624277 C89.5210162,1.54099765 89.0115607,1.13259117 88.3800043,0.821023335 C87.7484479,0.509455506 86.9695283,0.353671591 86.0432456,0.353671591 L79.6771569,0.353671591 L79.6771569,18.3909227 L83.3149219,18.3909227 Z M84.9317063,8.51338043 L83.3149219,8.51338043 L83.3149219,3.03147078 L84.8306572,3.03147078 C85.7400985,3.03147078 86.3884964,3.26725184 86.775851,3.73881396 C87.1632056,4.21037608 87.3568829,4.90087776 87.3568829,5.81031899 C87.3568829,6.73660173 87.133733,7.41868265 86.6874331,7.85656176 C86.2411332,8.29444088 85.655891,8.51338043 84.9317063,8.51338043 Z M97.8154571,18.6688075 C99.7859131,18.6688075 101.3227,18.2351388 102.425819,17.3678013 C103.528937,16.5004639 104.080497,15.1152501 104.080497,13.2121601 C104.080497,12.6563905 104.029972,12.1511454 103.928923,11.6964247 C103.827874,11.2417041 103.646828,10.8248769 103.385785,10.4459431 C103.124741,10.0670092 102.77528,9.71333762 102.337401,9.38492828 C101.899522,9.05651895 101.335331,8.74074074 100.64483,8.43759366 L97.8407193,7.22500535 C97.0660101,6.90501677 96.560765,6.55555556 96.3249839,6.17662171 C96.0892029,5.79768786 95.9713124,5.33033612 95.9713124,4.77456647 C95.9713124,4.5051024 96.000785,4.24405909 96.0597303,3.99143652 C96.1186755,3.73881396 96.2281453,3.51566403 96.3881396,3.32198673 C96.5481339,3.12830943 96.7628631,2.97252551 97.0323271,2.85463498 C97.3017912,2.73674445 97.6386213,2.67779919 98.0428174,2.67779919 C98.7501606,2.67779919 99.2554057,2.90936987 99.5585528,3.37251124 C99.8616999,3.83565261 100.013273,4.49668165 100.013273,5.35559837 L103.499465,5.35559837 L103.499465,4.85035324 C103.499465,3.99143652 103.360522,3.25462071 103.082638,2.6399058 C102.804753,2.02519089 102.417398,1.51994576 101.920574,1.12417041 C101.423749,0.728395062 100.834297,0.442089488 100.152216,0.265253693 C99.4701349,0.0884178977 98.7248983,0 97.9165061,0 C96.1818312,0 94.8176693,0.437879112 93.8240206,1.31363734 C92.8303718,2.18939556 92.3335474,3.5198744 92.3335474,5.30507386 C92.3335474,6.04610005 92.4261757,6.69870834 92.6114322,7.26289874 C92.7966888,7.82708913 93.0872047,8.32391351 93.4829801,8.75337187 C93.8787554,9.18283023 94.3713694,9.5575537 94.9608221,9.87754228 C95.5502747,10.1975309 96.2491972,10.4922572 97.0575894,10.7617213 C97.6638835,10.9638193 98.173339,11.161707 98.5859559,11.3553843 C98.9985728,11.5490616 99.3311925,11.7637908 99.583815,11.9995718 C99.8364376,12.2353529 100.017484,12.5006066 100.126954,12.7953329 C100.236423,13.0900592 100.291158,13.4395204 100.291158,13.8437165 C100.291158,14.6015842 100.068008,15.1615643 99.6217084,15.5236566 C99.1754085,15.8857489 98.6743738,16.0667951 98.1186042,16.0667951 C97.647042,16.0667951 97.2554771,15.9994291 96.9439092,15.8646971 C96.6323414,15.729965 96.3839292,15.5447085 96.1986727,15.3089274 C96.0134161,15.0731464 95.8871048,14.7826304 95.8197388,14.4373796 C95.7523728,14.0921287 95.7186898,13.7089845 95.7186898,13.2879469 L95.7186898,12.7574395 L92.0809249,12.7574395 L92.0809249,13.490045 C92.0809249,15.1573539 92.5230143,16.4373082 93.4071933,17.3299079 C94.2913723,18.2225077 95.7607935,18.6688075 97.8154571,18.6688075 Z M111.810747,18.3909227 C113.023335,18.3909227 114.025405,18.2056662 114.816956,17.8351531 C115.608506,17.46464 116.240063,16.9004496 116.711625,16.1425819 C117.183187,15.3847142 117.515807,14.4205381 117.709484,13.2500535 C117.903161,12.079569 118,10.702776 118,9.11967459 C118,7.78919575 117.924213,6.58502819 117.77264,5.50717191 C117.621066,4.42931564 117.33055,3.50724327 116.901092,2.74095483 C116.471633,1.97466638 115.86955,1.38521373 115.094841,0.972596874 C114.320131,0.559980019 113.30122,0.353671591 112.038107,0.353671591 L106.076215,0.353671591 L106.076215,18.3909227 L111.810747,18.3909227 Z M111.330764,15.7131235 L109.71398,15.7131235 L109.71398,3.03147078 L111.254978,3.03147078 C111.945479,3.03147078 112.497038,3.16199244 112.909655,3.42303575 C113.322272,3.68407907 113.63384,4.07143367 113.844359,4.58509955 C114.054878,5.09876543 114.19382,5.74295297 114.261186,6.51766217 C114.328552,7.29237137 114.362235,8.19339185 114.362235,9.22072361 C114.362235,10.4501534 114.324342,11.4774852 114.248555,12.3027189 C114.172768,13.1279526 114.021195,13.793192 113.793834,14.2984372 C113.566474,14.8036823 113.259117,15.1657746 112.871762,15.3847142 C112.484407,15.6036538 111.970741,15.7131235 111.330764,15.7131235 Z"/>
      <path fill="#0A2458" d="M4.17647817,35.3876069 L4.17647817,27.1433714 L4.20945511,27.1433714 L7.111426,35.3876069 L9.81553523,35.3876069 L9.81553523,23.6148386 L7.63905707,23.6148386 L7.63905707,31.6777009 L7.60608012,31.6777009 L4.73708618,23.6148386 L2,23.6148386 L2,35.3876069 L4.17647817,35.3876069 Z M14.498261,35.56898 C15.5865001,35.56898 16.3834428,35.2996683 16.8890893,34.761045 C17.3947357,34.2224216 17.6695436,33.4364711 17.7135128,32.4031936 L15.6689424,32.4031936 C15.6029885,32.9638016 15.4820731,33.3815096 15.3061961,33.6563174 C15.130319,33.9311253 14.850015,34.0685292 14.465284,34.0685292 C14.2564301,34.0685292 14.0805531,34.0108195 13.937653,33.8954002 C13.7947529,33.7799809 13.6793336,33.6260885 13.5913951,33.433723 C13.5034566,33.2413576 13.4402508,33.0215113 13.4017777,32.7741842 C13.3633046,32.5268571 13.344068,32.2712858 13.344068,32.0074703 L13.344068,31.2984661 L17.8454206,31.2984661 L17.8454206,30.7873235 C17.8454206,30.1058 17.8014513,29.4874823 17.7135128,28.9323705 C17.6255743,28.3772586 17.4606896,27.9045891 17.2188587,27.514362 C16.9770278,27.1241348 16.6445103,26.8218462 16.2213062,26.6074961 C15.7981021,26.3931459 15.2567306,26.2859709 14.5971918,26.2859709 C13.8277298,26.2859709 13.2121602,26.4123825 12.7504831,26.6652057 C12.2888059,26.9180289 11.9343037,27.2587907 11.6869767,27.6874909 C11.4396496,28.1161912 11.2747649,28.6053491 11.1923226,29.1549648 C11.1098802,29.7045805 11.068659,30.2761809 11.068659,30.8697658 C11.068659,31.4303738 11.0933917,31.9909818 11.1428571,32.5515898 C11.1923226,33.1121979 11.3269784,33.6178443 11.5468247,34.0685292 C11.766671,34.519214 12.1074327,34.8819604 12.5691099,35.1567683 C13.0307871,35.4315761 13.6738374,35.56898 14.498261,35.56898 Z M15.6689424,29.9464114 L13.344068,29.9464114 L13.344068,29.6001535 C13.344068,29.3912996 13.3633046,29.1824456 13.4017777,28.9735917 C13.4402508,28.7647377 13.5034566,28.5751203 13.5913951,28.4047394 C13.6793336,28.2343585 13.797501,28.0969546 13.9458972,27.9925276 C14.0942934,27.8881006 14.2839109,27.8358872 14.5147495,27.8358872 C14.745588,27.8358872 14.9352055,27.8826045 15.0836017,27.9760392 C15.2319979,28.0694738 15.3474172,28.2068778 15.4298596,28.3882509 C15.5123019,28.5696241 15.5700116,28.7894704 15.6029885,29.0477898 C15.6359655,29.3061092 15.6579501,29.6056497 15.6689424,29.9464114 Z M21.3079995,38.2401123 L21.3079995,34.5631833 L21.3409764,34.5631833 C21.5828073,34.9149374 21.8548671,35.1705087 22.1571557,35.3298972 C22.4594444,35.4892858 22.8249388,35.56898 23.2536391,35.56898 C24.1879857,35.56898 24.8750054,35.2117298 25.3146979,34.4972294 C25.7543905,33.782729 25.9742368,32.6010553 25.9742368,30.9522082 C25.9742368,29.3033611 25.7543905,28.1134431 25.3146979,27.3824542 C24.8750054,26.6514653 24.1879857,26.2859709 23.2536391,26.2859709 C22.7919619,26.2859709 22.4044828,26.3766575 22.0912019,26.5580307 C21.7779209,26.7394038 21.4948688,27.0389444 21.2420456,27.4566523 L21.2090687,27.4566523 L21.2090687,26.5168095 L19.0325905,26.5168095 L19.0325905,38.2401123 L21.3079995,38.2401123 Z M22.5116579,33.8706675 C22.0060114,33.8706675 21.6789901,33.6260885 21.5305938,33.1369306 C21.3821976,32.6477726 21.3079995,31.9195318 21.3079995,30.9522082 C21.3079995,29.9848845 21.3821976,29.2566437 21.5305938,28.7674858 C21.6789901,28.2783278 22.0060114,28.0337488 22.5116579,28.0337488 C23.006312,28.0337488 23.3278372,28.2783278 23.4762334,28.7674858 C23.6246297,29.2566437 23.6988278,29.9848845 23.6988278,30.9522082 C23.6988278,31.9195318 23.6246297,32.6477726 23.4762334,33.1369306 C23.3278372,33.6260885 23.006312,33.8706675 22.5116579,33.8706675 Z M29.8820044,35.4370723 C30.1458199,35.4370723 30.3958951,35.428828 30.6322298,35.4123396 C30.8685646,35.3958511 31.1131435,35.3876069 31.3659668,35.3876069 L31.3659668,33.8047136 C31.2890206,33.815706 31.2065782,33.8239502 31.1186397,33.8294463 C31.0307012,33.8349425 30.9427627,33.8376906 30.8548242,33.8376906 C30.5250547,33.8376906 30.3079565,33.7634925 30.2035296,33.6150962 C30.0991026,33.4667 30.0468891,33.2166248 30.0468891,32.8648708 L30.0468891,28.0667258 L31.3659668,28.0667258 L31.3659668,26.5168095 L30.0468891,26.5168095 L30.0468891,23.977585 L27.7714801,23.977585 L27.7714801,26.5168095 L26.6172871,26.5168095 L26.6172871,28.0667258 L27.7714801,28.0667258 L27.7714801,33.1451748 C27.7714801,33.5958597 27.7989609,33.9695984 27.8539225,34.2663908 C27.908884,34.5631833 28.0105629,34.8022661 28.1589592,34.9836393 C28.3073554,35.1650125 28.5217055,35.2859279 28.8020095,35.3463857 C29.0823135,35.4068434 29.4423118,35.4370723 29.8820044,35.4370723 Z M34.4163339,35.56898 C34.910988,35.56898 35.3506806,35.4755454 35.7354116,35.288676 C36.1201426,35.1018067 36.4334235,34.7885257 36.6752544,34.3488332 L36.7082314,34.3488332 L36.7082314,35.3876069 L38.8847095,35.3876069 L38.8847095,26.5168095 L36.6093005,26.5168095 L36.6093005,32.4031936 C36.6093005,33.3815096 36.2080811,33.8706675 35.4056421,33.8706675 C35.0648804,33.8706675 34.8175534,33.7799809 34.663661,33.5986078 C34.5097686,33.4172346 34.4328224,33.0957094 34.4328224,32.6340322 L34.4328224,26.5168095 L32.1574134,26.5168095 L32.1574134,33.0957094 C32.1574134,33.9860868 32.3525269,34.620893 32.7427541,35.0001278 C33.1329812,35.3793626 33.6908412,35.56898 34.4163339,35.56898 Z M42.6770578,35.3876069 L42.6770578,29.5012227 C42.6770578,28.5229068 43.0782773,28.0337488 43.8807162,28.0337488 C44.221478,28.0337488 44.468805,28.1244354 44.6226974,28.3058086 C44.7765898,28.4871818 44.853536,28.8087069 44.853536,29.2703841 L44.853536,35.3876069 L47.128945,35.3876069 L47.128945,28.8087069 C47.128945,27.9183295 46.9338314,27.2752791 46.5436043,26.8795558 C46.1533771,26.4838325 45.5955172,26.2859709 44.8700245,26.2859709 C44.3753703,26.2859709 43.9356778,26.3876498 43.5509468,26.5910076 C43.1662158,26.7943654 42.8529349,27.1158906 42.611104,27.5555832 L42.578127,27.5555832 L42.578127,26.5168095 L40.4016488,26.5168095 L40.4016488,35.3876069 L42.6770578,35.3876069 Z M51.7457169,35.56898 C52.8339559,35.56898 53.6308987,35.2996683 54.1365452,34.761045 C54.6421916,34.2224216 54.9169994,33.4364711 54.9609687,32.4031936 L52.9163983,32.4031936 C52.8504444,32.9638016 52.729529,33.3815096 52.5536519,33.6563174 C52.3777749,33.9311253 52.0974709,34.0685292 51.7127399,34.0685292 C51.503886,34.0685292 51.3280089,34.0108195 51.1851088,33.8954002 C51.0422088,33.7799809 50.9267895,33.6260885 50.838851,33.433723 C50.7509124,33.2413576 50.6877066,33.0215113 50.6492335,32.7741842 C50.6107604,32.5268571 50.5915239,32.2712858 50.5915239,32.0074703 L50.5915239,31.2984661 L55.0928765,31.2984661 L55.0928765,30.7873235 C55.0928765,30.1058 55.0489072,29.4874823 54.9609687,28.9323705 C54.8730302,28.3772586 54.7081455,27.9045891 54.4663146,27.514362 C54.2244837,27.1241348 53.8919662,26.8218462 53.4687621,26.6074961 C53.045558,26.3931459 52.5041865,26.2859709 51.8446477,26.2859709 C51.0751857,26.2859709 50.4596161,26.4123825 49.9979389,26.6652057 C49.5362618,26.9180289 49.1817596,27.2587907 48.9344326,27.6874909 C48.6871055,28.1161912 48.5222208,28.6053491 48.4397784,29.1549648 C48.3573361,29.7045805 48.3161149,30.2761809 48.3161149,30.8697658 C48.3161149,31.4303738 48.3408476,31.9909818 48.390313,32.5515898 C48.4397784,33.1121979 48.5744343,33.6178443 48.7942806,34.0685292 C49.0141268,34.519214 49.3548886,34.8819604 49.8165658,35.1567683 C50.2782429,35.4315761 50.9212933,35.56898 51.7457169,35.56898 Z M52.9163983,29.9464114 L50.5915239,29.9464114 L50.5915239,29.6001535 C50.5915239,29.3912996 50.6107604,29.1824456 50.6492335,28.9735917 C50.6877066,28.7647377 50.7509124,28.5751203 50.838851,28.4047394 C50.9267895,28.2343585 51.0449568,28.0969546 51.1933531,27.9925276 C51.3417493,27.8881006 51.5313667,27.8358872 51.7622053,27.8358872 C51.9930439,27.8358872 52.1826613,27.8826045 52.3310576,27.9760392 C52.4794538,28.0694738 52.5948731,28.2068778 52.6773155,28.3882509 C52.7597578,28.5696241 52.8174675,28.7894704 52.8504444,29.0477898 C52.8834214,29.3061092 52.905406,29.6056497 52.9163983,29.9464114 Z M62.5291769,35.3876069 L62.5291769,25.9891784 L62.5621538,25.9891784 L64.6561896,35.3876069 L66.5028984,35.3876069 L68.5969342,25.9891784 L68.6299111,25.9891784 L68.6299111,35.3876069 L70.8063893,35.3876069 L70.8063893,23.6148386 L67.294345,23.6148386 L65.5960325,31.925028 L65.5630555,31.925028 L63.8812315,23.6148386 L60.3526987,23.6148386 L60.3526987,35.3876069 L62.5291769,35.3876069 Z M75.5385804,35.56898 C76.6268195,35.56898 77.4237623,35.2996683 77.9294087,34.761045 C78.4350552,34.2224216 78.709863,33.4364711 78.7538323,32.4031936 L76.7092619,32.4031936 C76.643308,32.9638016 76.5223925,33.3815096 76.3465155,33.6563174 C76.1706385,33.9311253 75.8903345,34.0685292 75.5056035,34.0685292 C75.2967495,34.0685292 75.1208725,34.0108195 74.9779724,33.8954002 C74.8350724,33.7799809 74.7196531,33.6260885 74.6317145,33.433723 C74.543776,33.2413576 74.4805702,33.0215113 74.4420971,32.7741842 C74.403624,32.5268571 74.3843875,32.2712858 74.3843875,32.0074703 L74.3843875,31.2984661 L78.88574,31.2984661 L78.88574,30.7873235 C78.88574,30.1058 78.8417708,29.4874823 78.7538323,28.9323705 C78.6658938,28.3772586 78.5010091,27.9045891 78.2591782,27.514362 C78.0173472,27.1241348 77.6848297,26.8218462 77.2616257,26.6074961 C76.8384216,26.3931459 76.2970501,26.2859709 75.6375113,26.2859709 C74.8680493,26.2859709 74.2524797,26.4123825 73.7908025,26.6652057 C73.3291253,26.9180289 72.9746232,27.2587907 72.7272961,27.6874909 C72.4799691,28.1161912 72.3150844,28.6053491 72.232642,29.1549648 C72.1501997,29.7045805 72.1089785,30.2761809 72.1089785,30.8697658 C72.1089785,31.4303738 72.1337112,31.9909818 72.1831766,32.5515898 C72.232642,33.1121979 72.3672979,33.6178443 72.5871441,34.0685292 C72.8069904,34.519214 73.1477522,34.8819604 73.6094293,35.1567683 C74.0711065,35.4315761 74.7141569,35.56898 75.5385804,35.56898 Z M76.7092619,29.9464114 L74.3843875,29.9464114 L74.3843875,29.6001535 C74.3843875,29.3912996 74.403624,29.1824456 74.4420971,28.9735917 C74.4805702,28.7647377 74.543776,28.5751203 74.6317145,28.4047394 C74.7196531,28.2343585 74.8378204,28.0969546 74.9862167,27.9925276 C75.1346129,27.8881006 75.3242303,27.8358872 75.5550689,27.8358872 C75.7859075,27.8358872 75.9755249,27.8826045 76.1239212,27.9760392 C76.2723174,28.0694738 76.3877367,28.2068778 76.4701791,28.3882509 C76.5526214,28.5696241 76.6103311,28.7894704 76.643308,29.0477898 C76.6762849,29.3061092 76.6982696,29.6056497 76.7092619,29.9464114 Z M82.5791575,35.56898 C83.0408347,35.56898 83.4283138,35.4865377 83.7415947,35.321653 C84.0548757,35.1567683 84.3379278,34.8654719 84.590751,34.447764 L84.6237279,34.447764 L84.6237279,35.3876069 L86.8002061,35.3876069 L86.8002061,23.6148386 L84.5247971,23.6148386 L84.5247971,27.341233 L84.4918202,27.341233 C84.2499893,26.989479 83.9779295,26.7256634 83.6756409,26.5497864 C83.3733522,26.3739094 83.0078578,26.2859709 82.5791575,26.2859709 C81.6448109,26.2859709 80.9577912,26.6514653 80.5180987,27.3824542 C80.0784061,28.1134431 79.8585598,29.3033611 79.8585598,30.9522082 C79.8585598,32.6010553 80.0784061,33.782729 80.5180987,34.4972294 C80.9577912,35.2117298 81.6448109,35.56898 82.5791575,35.56898 Z M83.3211387,33.8706675 C82.8264846,33.8706675 82.5049594,33.6260885 82.3565632,33.1369306 C82.2081669,32.6477726 82.1339688,31.9195318 82.1339688,30.9522082 C82.1339688,29.9848845 82.2081669,29.2566437 82.3565632,28.7674858 C82.5049594,28.2783278 82.8264846,28.0337488 83.3211387,28.0337488 C83.8267852,28.0337488 84.1538065,28.2783278 84.3022028,28.7674858 C84.450599,29.2566437 84.5247971,29.9848845 84.5247971,30.9522082 C84.5247971,31.9195318 84.450599,32.6477726 84.3022028,33.1369306 C84.1538065,33.6260885 83.8267852,33.8706675 83.3211387,33.8706675 Z M90.6749968,25.4285704 L90.6749968,23.4829308 L88.3995878,23.4829308 L88.3995878,25.4285704 L90.6749968,25.4285704 Z M90.6749968,35.3876069 L90.6749968,26.5168095 L88.3995878,26.5168095 L88.3995878,35.3876069 L90.6749968,35.3876069 Z M94.1210872,35.56898 C94.6707029,35.56898 95.1186397,35.5002781 95.4648976,35.3628741 C95.8111555,35.2254702 96.1161922,34.9259297 96.3800077,34.4642525 L96.4129847,34.4642525 C96.4459616,34.6181449 96.4816866,34.7747853 96.5201597,34.9341739 C96.5586328,35.0935625 96.6163425,35.2447068 96.6932887,35.3876069 L98.8697668,35.3876069 C98.7598437,35.1237913 98.6856456,34.8764643 98.6471725,34.6456257 C98.6086994,34.4147871 98.5894628,34.0905138 98.5894628,33.6728059 L98.5894628,29.0065686 C98.5894628,28.6108453 98.5482417,28.2453509 98.4657993,27.9100853 C98.3833569,27.5748197 98.2267165,27.2862715 97.9958779,27.0444406 C97.7650393,26.8026096 97.440766,26.6157403 97.0230581,26.4838325 C96.6053502,26.3519248 96.0557345,26.2859709 95.374211,26.2859709 C94.9455108,26.2859709 94.5415432,26.3326882 94.1623084,26.4261229 C93.7830736,26.5195576 93.4533041,26.67345 93.1730001,26.8878001 C92.8926961,27.1021502 92.6701018,27.3824542 92.5052171,27.7287121 C92.3403323,28.07497 92.25789,28.5064183 92.25789,29.0230571 L92.25789,29.2374072 L94.3024604,29.2374072 L94.3024604,28.9900801 C94.3024604,28.6383261 94.3903989,28.3580221 94.5662759,28.1491681 C94.7421529,27.9403141 95.0059685,27.8358872 95.3577225,27.8358872 C95.7424535,27.8358872 96.0145133,27.9320699 96.1739018,28.1244354 C96.3332904,28.3168009 96.4129847,28.5833645 96.4129847,28.9241262 C96.4129847,29.2209187 96.3470308,29.4462612 96.215123,29.6001535 C96.0832153,29.7540459 95.8468805,29.8749614 95.5061188,29.9628999 L94.220018,30.3091578 C93.8242947,30.4190809 93.4862811,30.5454926 93.2059771,30.6883926 C92.9256731,30.8312927 92.6948345,31.0099178 92.5134613,31.2242679 C92.3320881,31.4386181 92.1974323,31.6969374 92.1094938,31.9992261 C92.0215552,32.3015147 91.977586,32.661513 91.977586,33.0792209 C91.977586,33.3760134 92.0160591,33.675554 92.0930053,33.9778426 C92.1699515,34.2801312 92.2908669,34.552191 92.4557516,34.7940219 C92.6206364,35.0358528 92.8404826,35.2254702 93.1152905,35.3628741 C93.3900983,35.5002781 93.7253639,35.56898 94.1210872,35.56898 Z M95.0114646,34.0685292 C94.7036798,34.0685292 94.4838336,33.9476137 94.3519258,33.7057828 C94.220018,33.4639519 94.1540642,33.1726556 94.1540642,32.8318939 C94.1540642,32.4361706 94.252995,32.1228896 94.4508566,31.892051 C94.6487183,31.6612124 94.9784877,31.4963277 95.4401649,31.3973969 C95.583065,31.3644199 95.7424535,31.3122064 95.9183305,31.2407564 C96.0942076,31.1693064 96.2590923,31.0731236 96.4129847,30.9522082 L96.4129847,32.6999861 C96.4129847,32.941817 96.3690154,33.150671 96.2810769,33.326548 C96.1931384,33.502425 96.0804672,33.6453251 95.9430632,33.7552482 C95.8056593,33.8651714 95.654515,33.9448656 95.4896303,33.9943311 C95.3247456,34.0437965 95.165357,34.0685292 95.0114646,34.0685292 Z M107.839495,35.56898 C108.323157,35.56898 108.79033,35.5195146 109.241015,35.4205838 C109.6917,35.321653 110.092919,35.1292875 110.444673,34.8434873 C110.796427,34.5576871 111.076732,34.1702081 111.285585,33.6810501 C111.494439,33.1918921 111.598866,32.5735745 111.598866,31.8260971 L111.598866,23.6148386 L109.224527,23.6148386 L109.224527,31.8260971 C109.224527,32.1228896 109.20529,32.3949494 109.166817,32.6422764 C109.128344,32.8896035 109.056894,33.1039536 108.952467,33.2853268 C108.84804,33.4667 108.707888,33.6096001 108.532011,33.7140271 C108.356134,33.818454 108.125295,33.8706675 107.839495,33.8706675 C107.564687,33.8706675 107.336597,33.818454 107.155223,33.7140271 C106.97385,33.6096001 106.83095,33.4667 106.726523,33.2853268 C106.622096,33.1039536 106.550646,32.8896035 106.512173,32.6422764 C106.4737,32.3949494 106.454463,32.1228896 106.454463,31.8260971 L106.454463,23.6148386 L104.080124,23.6148386 L104.080124,31.8260971 C104.080124,32.6175437 104.184551,33.2605941 104.393405,33.7552482 C104.602259,34.2499024 104.882563,34.6318853 105.234317,34.901197 C105.586071,35.1705087 105.98729,35.3491338 106.437975,35.4370723 C106.88866,35.5250108 107.355833,35.56898 107.839495,35.56898 Z M116.380523,35.56898 C117.666624,35.56898 118.669672,35.2859279 119.389669,34.7198238 C120.109666,34.1537196 120.469664,33.2496018 120.469664,32.0074703 C120.469664,31.6447239 120.436687,31.3149545 120.370733,31.0181621 C120.304779,30.7213696 120.186612,30.4493098 120.016231,30.2019827 C119.84585,29.9546557 119.617759,29.7238171 119.331959,29.509467 C119.046159,29.2951168 118.677917,29.0890109 118.227232,28.8911493 L116.397011,28.0997027 C115.891365,27.8908487 115.561596,27.6627582 115.407703,27.4154311 C115.253811,27.1681041 115.176865,26.8630674 115.176865,26.500321 C115.176865,26.324444 115.196101,26.1540631 115.234574,25.9891784 C115.273047,25.8242937 115.344497,25.6786455 115.448924,25.5522339 C115.553351,25.4258223 115.693503,25.3241434 115.86938,25.2471972 C116.045257,25.170251 116.265104,25.1317779 116.528919,25.1317779 C116.990596,25.1317779 117.320366,25.2829222 117.518227,25.5852109 C117.716089,25.8874995 117.81502,26.3189478 117.81502,26.8795558 L120.090429,26.8795558 L120.090429,26.5497864 C120.090429,25.9891784 119.999742,25.5082647 119.818369,25.1070452 C119.636996,24.7058258 119.384173,24.3760563 119.0599,24.117737 C118.735626,23.8594176 118.350895,23.6725482 117.905707,23.5571289 C117.460518,23.4417096 116.974108,23.384 116.446477,23.384 C115.314269,23.384 114.423891,23.6698002 113.775345,24.2414005 C113.126798,24.8130008 112.802525,25.6813936 112.802525,26.8465789 C112.802525,27.3302407 112.862983,27.7561929 112.983898,28.1244354 C113.104813,28.4926779 113.294431,28.8169512 113.55275,29.0972552 C113.81107,29.3775592 114.132595,29.6221382 114.517326,29.8309921 C114.902057,30.0398461 115.358238,30.2322116 115.885869,30.4080886 C116.281592,30.5399964 116.61411,30.6691561 116.883421,30.7955677 C117.152733,30.9219793 117.369831,31.0621313 117.534716,31.2160237 C117.699601,31.3699161 117.817768,31.543045 117.889218,31.7354105 C117.960668,31.927776 117.996393,32.1558665 117.996393,32.4196821 C117.996393,32.9143362 117.850745,33.2798306 117.559449,33.5161654 C117.268152,33.7525002 116.941131,33.8706675 116.578385,33.8706675 C116.2706,33.8706675 116.015029,33.8266983 115.811671,33.7387598 C115.608313,33.6508212 115.446176,33.5299058 115.325261,33.3760134 C115.204345,33.222121 115.121903,33.0325036 115.077934,32.8071611 C115.033965,32.5818187 115.01198,32.3317436 115.01198,32.0569357 L115.01198,31.7106778 L112.63764,31.7106778 L112.63764,32.1888435 C112.63764,33.2770826 112.926188,34.1124984 113.503285,34.6950911 C114.080381,35.2776837 115.039461,35.56898 116.380523,35.56898 Z M123.305681,35.3876069 L123.8498,32.8978477 L126.98261,32.8978477 L127.526729,35.3876069 L130,35.3876069 L126.883679,23.6148386 L123.948731,23.6148386 L120.83241,35.3876069 L123.305681,35.3876069 Z M126.570398,30.9522082 L124.262012,30.9522082 L125.399717,25.659409 L125.432694,25.659409 L126.570398,30.9522082 Z"/>
    </g>
  </g>
</svg>
